# generated from PmQm by Jehee Lee
:FULLY-SPECIFIED
:DEGREES
33
root 12.8776 39.8969 4.2918 -103.553 88.6417 -98.2844
RightUpLeg 4.78684 1.21014 1.69255
RightLeg 2.22613 5.42145 -0.844371
RightFoot -1.16041 -0.465184 4.46434
RightToes 4.07452e-010 -1.59028e-015 9.93923e-017
Spine 2.44054 0.137726 2.12439
Spine1 -3.62287 0.178915 -0.738733
HEad -24.6836 -0.477743 1.24631
LeftShoulder1 9.93923e-017 -0 1.22299e-017
LeftArm 12.6033 1.13383 -97.0736
LeftForeArm -157.189 -62.1172 156.479
LeftHand 1.4757 8.64185 18.4866
RightShoulder 1.98785e-016 -4.96962e-017 1.55301e-017
RightArm 14.4973 -4.76586 97.7304
RightForeArm -105.279 57.9439 -133.158
RightHand 5.66134 -22.1367 -24.3609
LeftUpLeg 0.810558 -1.64582 0.886541
LeftLeg 9.4628 -2.82809 3.78678
LeftFoot -4.34605 0.22487 -2.99235
LeftToes 1.53707e-010 -1.11459e-010 1.58109e-011
34
root 12.953 39.8966 4.28084 -109.468 88.6737 -104.064
RightUpLeg 5.09048 1.10311 1.58075
RightLeg 2.19825 5.42309 -0.82583
RightFoot -1.27259 -0.466997 4.51438
RightToes 4.07452e-010 -1.59028e-015 9.93923e-017
Spine 2.7948 0.141891 2.45003
Spine1 -4.73703 0.265108 -1.32511
HEad -24.1591 -0.509526 1.27515
LeftShoulder1 9.93923e-017 -0 1.22299e-017
LeftArm 14.5438 -3.7469 -99.1525
LeftForeArm -159.672 -59.9107 159.763
LeftHand 1.30429 8.03827 20.44
RightShoulder 1.98785e-016 -4.96962e-017 1.55301e-017
RightArm 16.2287 0.425044 98.9236
RightForeArm -106.83 56.7693 -136.691
RightHand 5.93492 -22.3403 -25.6684
LeftUpLeg 1.13048 -1.60184 0.810668
LeftLeg 9.34007 -2.965 3.77712
LeftFoot -4.3902 0.220758 -2.96066
LeftToes 1.53707e-010 -1.11459e-010 1.58109e-011
35
root 13.0359 39.8949 4.26636 -117.826 88.6774 -112.311
RightUpLeg 5.35152 1.03595 1.4845
RightLeg 2.23367 5.33224 -0.858854
RightFoot -1.42462 -0.468892 4.59396
RightToes 4.07452e-010 -1.59028e-015 9.93923e-017
Spine 2.99186 0.0982813 2.71699
Spine1 -5.58775 0.280276 -1.81839
HEad -23.8987 -0.480937 1.16048
LeftShoulder1 9.93923e-017 -0 1.22299e-017
LeftArm 16.5374 -7.32864 -100.967
LeftForeArm -161.983 -58.1264 162.104
LeftHand 1.23094 7.79263 21.8077
RightShoulder 1.98785e-016 -4.96962e-017 1.55301e-017
RightArm 17.86 4.59729 100.052
RightForeArm -109.029 55.7092 -139.614
RightHand 6.14114 -22.5349 -26.5361
LeftUpLeg 1.41191 -1.5881 0.723989
LeftLeg 9.25202 -3.12356 3.75828
LeftFoot -4.44954 0.216435 -2.92925
LeftToes 1.53707e-010 -1.11459e-010 1.58109e-011
36
root 13.1246 39.8895 4.24948 -126.776 88.6094 -121.132
RightUpLeg 5.63025 0.969578 1.4109
RightLeg 2.29877 5.20479 -0.88127
RightFoot -1.59633 -0.468965 4.66345
RightToes 4.07452e-010 -1.59028e-015 9.93923e-017
Spine 3.12381 0.0964504 2.9685
Spine1 -6.3458 0.320317 -2.23454
HEad -23.6986 -0.437863 1.00743
LeftShoulder1 9.93923e-017 -0 1.22299e-017
LeftArm 18.5233 -9.90357 -102.555
LeftForeArm -164.221 -56.8093 163.72
LeftHand 1.17203 7.60667 23.032
RightShoulder 1.98785e-016 -4.96962e-017 1.55301e-017
RightArm 19.216 7.65457 100.939
RightForeArm -111.581 54.7362 -142.105
RightHand 6.30375 -22.6665 -27.2508
LeftUpLeg 1.67342 -1.58627 0.677116
LeftLeg 9.24307 -3.31141 3.7345
LeftFoot -4.5494 0.211382 -2.89947
LeftToes 1.53707e-010 -1.11459e-010 1.58109e-011
37
root 13.217 39.8828 4.23382 -132.996 88.5074 -127.206
RightUpLeg 5.95239 0.886126 1.35337
RightLeg 2.31922 5.1253 -0.865599
RightFoot -1.74214 -0.466764 4.70142
RightToes 4.07452e-010 -1.59028e-015 9.93923e-017
Spine 3.24854 0.143753 3.2799
Spine1 -7.08805 0.413509 -2.71496
HEad -23.3695 -0.472 0.964615
LeftShoulder1 9.93923e-017 -0 1.22299e-017
LeftArm 20.3851 -11.7915 -103.854
LeftForeArm -165.816 -55.9032 164.767
LeftHand 1.06752 7.30796 24.216
RightShoulder 1.98785e-016 -4.96962e-017 1.55301e-017
RightArm 20.3568 9.67246 101.581
RightForeArm -113.018 54.022 -143.755
RightHand 6.42215 -22.7428 -27.8049
LeftUpLeg 1.93875 -1.55551 0.689403
LeftLeg 9.2842 -3.50931 3.68953
LeftFoot -4.68495 0.205216 -2.85903
LeftToes 1.53707e-010 -1.11459e-010 1.58109e-011
38
root 13.3118 39.8787 4.21952 -137.273 88.4157 -131.395
RightUpLeg 6.25128 0.803172 1.29931
RightLeg 2.26189 5.07218 -0.838618
RightFoot -1.84458 -0.465675 4.73335
RightToes 4.07452e-010 -1.59028e-015 9.93923e-017
Spine 3.12307 0.137422 3.58786
Spine1 -7.45621 0.451758 -3.20179
HEad -23.0419 -0.607993 1.00453
LeftShoulder1 9.93923e-017 -0 1.22299e-017
LeftArm 21.935 -13.3162 -104.726
LeftForeArm -166.149 -55.2663 165.407
LeftHand 0.952312 6.99864 25.1579
RightShoulder 1.98785e-016 -4.96962e-017 1.55301e-017
RightArm 21.424 11.0761 102.199
RightForeArm -113.474 53.5897 -144.663
RightHand 6.56338 -22.8929 -28.3235
LeftUpLeg 2.17267 -1.50211 0.714513
LeftLeg 9.29443 -3.69254 3.62113
LeftFoot -4.82278 0.196483 -2.79413
LeftToes 1.53707e-010 -1.11459e-010 1.58109e-011
39
root 13.4091 39.877 4.20451 -141.513 88.3123 -135.614
RightUpLeg 6.50387 0.74026 1.25314
RightLeg 2.16114 4.97394 -0.82694
RightFoot -1.93362 -0.467239 4.78723
RightToes 4.07452e-010 -1.59028e-015 9.93923e-017
Spine 2.71518 0.0657227 3.82726
Spine1 -7.50846 0.414738 -3.6334
HEad -22.7354 -0.845034 1.06583
LeftShoulder1 9.93923e-017 -0 1.22299e-017
LeftArm 23.1179 -14.5036 -105.3
LeftForeArm -165.31 -54.8655 165.713
LeftHand 0.848412 6.7312 25.8294
RightShoulder 1.98785e-016 -4.96962e-017 1.55301e-017
RightArm 22.2473 12.0715 102.803
RightForeArm -113.851 53.2911 -145.279
RightHand 6.72604 -23.0981 -28.8352
LeftUpLeg 2.36411 -1.45652 0.714995
LeftLeg 9.25063 -3.86342 3.56211
LeftFoot -4.94973 0.1875 -2.72953
LeftToes 1.53707e-010 -1.11459e-010 1.58109e-011
40
root 13.5051 39.8736 4.18913 -145.134 88.2032 -139.19
RightUpLeg 6.75956 0.684474 1.21219
RightLeg 2.1024 4.87348 -0.822123
RightFoot -2.05156 -0.468368 4.85014
RightToes 4.07452e-010 -1.59028e-015 9.93923e-017
Spine 2.22876 0.0200691 3.98373
Spine1 -7.47755 0.39041 -3.98037
HEad -22.4186 -1.05985 1.13317
LeftShoulder1 9.93923e-017 -0 1.22299e-017
LeftArm 23.9564 -15.3625 -105.807
LeftForeArm -164.28 -54.6725 165.807
LeftHand 0.746889 6.47652 26.3698
RightShoulder 1.98785e-016 -4.96962e-017 1.55301e-017
RightArm 22.6457 12.7292 103.23
RightForeArm -114.127 53.0568 -145.751
RightHand 6.81656 -23.2305 -29.0724
LeftUpLeg 2.57308 -1.42829 0.701866
LeftLeg 9.21423 -4.01961 3.54085
LeftFoot -5.08093 0.181966 -2.70459
LeftToes 1.53707e-010 -1.11459e-010 1.58109e-011
41
root 13.5945 39.8667 4.17402 -146.698 88.1636 -140.619
RightUpLeg 7.04891 0.610669 1.1512
RightLeg 2.1322 4.89189 -0.808555
RightFoot -2.20057 -0.466081 4.89267
RightToes 4.07452e-010 -1.59028e-015 9.93923e-017
Spine 1.86778 0.0671532 4.05598
Spine1 -7.50345 0.444417 -4.19679
HEad -22.0237 -1.2113 1.22618
LeftShoulder1 9.93923e-017 -0 1.22299e-017
LeftArm 24.4976 -15.9857 -106.285
LeftForeArm -163.877 -54.561 165.877
LeftHand 0.682636 6.31998 26.7706
RightShoulder 1.98785e-016 -4.96962e-017 1.55301e-017
RightArm 22.6869 13.1479 103.404
RightForeArm -114.115 52.8896 -146.06
RightHand 6.81299 -23.277 -28.9475
LeftUpLeg 2.86213 -1.39206 0.694124
LeftLeg 9.22196 -4.13831 3.54073
LeftFoot -5.22005 0.178625 -2.70726
LeftToes 1.53707e-010 -1.11459e-010 1.58109e-011
42
root 13.6788 39.8601 4.15659 -146.398 88.2091 -140.13
RightUpLeg 7.36409 0.5289 1.07016
RightLeg 2.17853 5.02246 -0.792776
RightFoot -2.33582 -0.462613 4.91758
RightToes 4.07452e-010 -1.59028e-015 9.93923e-017
Spine 1.6178 0.152377 4.02963
Spine1 -7.57823 0.517069 -4.21826
HEad -21.4757 -1.42367 1.33589
LeftShoulder1 9.93923e-017 -0 1.22299e-017
LeftArm 24.7933 -16.4304 -106.563
LeftForeArm -163.761 -54.4352 165.982
LeftHand 0.691784 6.34654 26.9268
RightShoulder 1.98785e-016 -4.96962e-017 1.55301e-017
RightArm 22.6358 13.4479 103.416
RightForeArm -114.377 52.7491 -146.346
RightHand 6.80333 -23.308 -28.8222
LeftUpLeg 3.21602 -1.31257 0.697968
LeftLeg 9.23232 -4.22309 3.52407
LeftFoot -5.34788 0.174528 -2.689
LeftToes 1.53707e-010 -1.11459e-010 1.58109e-011
43
root 13.7619 39.8565 4.13461 -145.85 88.2403 -139.425
RightUpLeg 7.68247 0.479937 1.01563
RightLeg 2.14393 5.10947 -0.794274
RightFoot -2.42476 -0.462649 4.95893
RightToes 4.07452e-010 -1.59028e-015 9.93923e-017
Spine 1.38619 0.164462 3.94234
Spine1 -7.73336 0.50053 -4.10513
HEad -20.7686 -1.71228 1.40128
LeftShoulder1 9.93923e-017 -0 1.22299e-017
LeftArm 24.9042 -16.6507 -106.544
LeftForeArm -163.104 -54.332 166.022
LeftHand 0.722464 6.42328 26.8788
RightShoulder 1.98785e-016 -4.96962e-017 1.55301e-017
RightArm 22.7103 13.6422 103.377
RightForeArm -115.111 52.6375 -146.628
RightHand 6.8388 -23.3325 -28.9751
LeftUpLeg 3.53968 -1.20887 0.716055
LeftLeg 9.22457 -4.29818 3.48817
LeftFoot -5.45931 0.168253 -2.64687
LeftToes 1.53707e-010 -1.11459e-010 1.58109e-011
44
root 13.8414 39.8529 4.10996 -146.09 88.2027 -139.577
RightUpLeg 7.95259 0.483052 1.01421
RightLeg 2.06279 5.07464 -0.828992
RightFoot -2.49437 -0.466861 5.03808
RightToes 4.07452e-010 -1.59028e-015 9.93923e-017
Spine 1.18688 0.0770766 3.88801
Spine1 -8.04379 0.38649 -4.033
HEad -20.0134 -1.83186 1.36372
LeftShoulder1 9.93923e-017 -0 1.22299e-017
LeftArm 24.8796 -16.6432 -106.354
LeftForeArm -162.026 -54.2817 165.979
LeftHand 0.704388 6.37467 26.7364
RightShoulder 1.98785e-016 -4.96962e-017 1.55301e-017
RightArm 22.9613 13.6734 103.321
RightForeArm -115.489 52.6328 -146.677
RightHand 6.88963 -23.3454 -29.2427
LeftUpLeg 3.75236 -1.16931 0.728089
LeftLeg 9.24975 -4.32018 3.4743
LeftFoot -5.57774 0.163438 -2.62757
LeftToes 1.53707e-010 -1.11459e-010 1.58109e-011
